<mxfile host="app.diagrams.net" agent="Mozilla/5.0 (Windows NT 10.0; Win64; x64) AppleWebKit/537.36 (KHTML, like Gecko) Chrome/127.0.0.0 Safari/537.36" version="24.7.6">
  <diagram name="Page-1" id="zS3qECrMtHrO8l7n4Hfk">
    <mxGraphModel dx="1290" dy="563" grid="1" gridSize="10" guides="1" tooltips="1" connect="1" arrows="1" fold="1" page="1" pageScale="1" pageWidth="850" pageHeight="1100" math="0" shadow="0">
      <root>
        <mxCell id="0" />
        <mxCell id="1" parent="0" />
        <mxCell id="Ux1V4yATfqPqHHu-dgDe-22" value="" style="edgeStyle=orthogonalEdgeStyle;rounded=0;orthogonalLoop=1;jettySize=auto;html=1;" edge="1" parent="1" source="Ux1V4yATfqPqHHu-dgDe-6" target="Ux1V4yATfqPqHHu-dgDe-12">
          <mxGeometry relative="1" as="geometry" />
        </mxCell>
        <mxCell id="Ux1V4yATfqPqHHu-dgDe-6" value="&lt;font style=&quot;font-size: 14px;&quot; face=&quot;Times New Roman&quot;&gt;&lt;b&gt;STEPPER MOTORS&lt;/b&gt;&lt;/font&gt;" style="rounded=1;whiteSpace=wrap;html=1;" vertex="1" parent="1">
          <mxGeometry x="380" y="370" width="130" height="60" as="geometry" />
        </mxCell>
        <mxCell id="Ux1V4yATfqPqHHu-dgDe-21" value="" style="edgeStyle=orthogonalEdgeStyle;rounded=0;orthogonalLoop=1;jettySize=auto;html=1;" edge="1" parent="1" source="Ux1V4yATfqPqHHu-dgDe-7" target="Ux1V4yATfqPqHHu-dgDe-6">
          <mxGeometry relative="1" as="geometry" />
        </mxCell>
        <mxCell id="Ux1V4yATfqPqHHu-dgDe-23" value="" style="edgeStyle=orthogonalEdgeStyle;rounded=0;orthogonalLoop=1;jettySize=auto;html=1;" edge="1" parent="1" source="Ux1V4yATfqPqHHu-dgDe-7" target="Ux1V4yATfqPqHHu-dgDe-8">
          <mxGeometry relative="1" as="geometry" />
        </mxCell>
        <mxCell id="Ux1V4yATfqPqHHu-dgDe-7" value="&lt;font style=&quot;font-size: 16px;&quot; face=&quot;Times New Roman&quot;&gt;&lt;b style=&quot;&quot;&gt;ARDUINO&lt;/b&gt;&lt;/font&gt;&lt;div&gt;&lt;font size=&quot;3&quot; face=&quot;Times New Roman&quot;&gt;&lt;b&gt;BOARD&lt;/b&gt;&lt;/font&gt;&lt;/div&gt;" style="rounded=1;whiteSpace=wrap;html=1;" vertex="1" parent="1">
          <mxGeometry x="380" y="230" width="130" height="90" as="geometry" />
        </mxCell>
        <mxCell id="Ux1V4yATfqPqHHu-dgDe-8" value="&lt;font style=&quot;font-size: 14px;&quot; face=&quot;Times New Roman&quot;&gt;&lt;b&gt;SPEAKER&lt;/b&gt;&lt;/font&gt;" style="rounded=1;whiteSpace=wrap;html=1;" vertex="1" parent="1">
          <mxGeometry x="140" y="245" width="130" height="60" as="geometry" />
        </mxCell>
        <mxCell id="Ux1V4yATfqPqHHu-dgDe-19" value="" style="edgeStyle=orthogonalEdgeStyle;rounded=0;orthogonalLoop=1;jettySize=auto;html=1;" edge="1" parent="1" source="Ux1V4yATfqPqHHu-dgDe-9" target="Ux1V4yATfqPqHHu-dgDe-7">
          <mxGeometry relative="1" as="geometry" />
        </mxCell>
        <mxCell id="Ux1V4yATfqPqHHu-dgDe-24" style="edgeStyle=orthogonalEdgeStyle;rounded=0;orthogonalLoop=1;jettySize=auto;html=1;exitX=0.5;exitY=1;exitDx=0;exitDy=0;entryX=1;entryY=0.5;entryDx=0;entryDy=0;" edge="1" parent="1" source="Ux1V4yATfqPqHHu-dgDe-9" target="Ux1V4yATfqPqHHu-dgDe-6">
          <mxGeometry relative="1" as="geometry" />
        </mxCell>
        <mxCell id="Ux1V4yATfqPqHHu-dgDe-9" value="&lt;font style=&quot;font-size: 14px;&quot; face=&quot;Times New Roman&quot;&gt;&lt;b&gt;POWER SUPPLY&lt;/b&gt;&lt;/font&gt;" style="rounded=1;whiteSpace=wrap;html=1;" vertex="1" parent="1">
          <mxGeometry x="610" y="245" width="130" height="60" as="geometry" />
        </mxCell>
        <mxCell id="Ux1V4yATfqPqHHu-dgDe-13" style="edgeStyle=orthogonalEdgeStyle;rounded=0;orthogonalLoop=1;jettySize=auto;html=1;exitX=0.5;exitY=1;exitDx=0;exitDy=0;" edge="1" parent="1" source="Ux1V4yATfqPqHHu-dgDe-10" target="Ux1V4yATfqPqHHu-dgDe-7">
          <mxGeometry relative="1" as="geometry" />
        </mxCell>
        <mxCell id="Ux1V4yATfqPqHHu-dgDe-10" value="&lt;font style=&quot;font-size: 14px;&quot; face=&quot;Times New Roman&quot;&gt;&lt;b&gt;SOUND SENSOR&lt;/b&gt;&lt;/font&gt;" style="rounded=1;whiteSpace=wrap;html=1;" vertex="1" parent="1">
          <mxGeometry x="380" y="120" width="130" height="60" as="geometry" />
        </mxCell>
        <mxCell id="Ux1V4yATfqPqHHu-dgDe-15" style="edgeStyle=orthogonalEdgeStyle;rounded=0;orthogonalLoop=1;jettySize=auto;html=1;exitX=0.5;exitY=1;exitDx=0;exitDy=0;entryX=0.5;entryY=0;entryDx=0;entryDy=0;" edge="1" parent="1" source="Ux1V4yATfqPqHHu-dgDe-11" target="Ux1V4yATfqPqHHu-dgDe-9">
          <mxGeometry relative="1" as="geometry" />
        </mxCell>
        <mxCell id="Ux1V4yATfqPqHHu-dgDe-11" value="&lt;font style=&quot;font-size: 14px;&quot; face=&quot;Times New Roman&quot;&gt;&lt;b&gt;SOLAR PLATES&lt;/b&gt;&lt;/font&gt;" style="rounded=1;whiteSpace=wrap;html=1;" vertex="1" parent="1">
          <mxGeometry x="610" y="120" width="130" height="60" as="geometry" />
        </mxCell>
        <mxCell id="Ux1V4yATfqPqHHu-dgDe-12" value="&lt;font style=&quot;font-size: 14px;&quot; face=&quot;Times New Roman&quot;&gt;&lt;b&gt;HAND MOVEMENT&lt;/b&gt;&lt;/font&gt;" style="rounded=1;whiteSpace=wrap;html=1;" vertex="1" parent="1">
          <mxGeometry x="380" y="480" width="130" height="60" as="geometry" />
        </mxCell>
      </root>
    </mxGraphModel>
  </diagram>
</mxfile>
